<svg version="1.1" id="Layer_1" xmlns="http://www.w3.org/2000/svg" xmlns:xlink="http://www.w3.org/1999/xlink" x="0px" y="0px"
	 width="100%" viewBox="0 0 154 152" enable-background="new 0 0 154 152" xml:space="preserve">
<path fill="#1B1A16" opacity="1.000000" stroke="none" 
	d="
M155.000000,69.000000 
	C155.000000,97.333336 155.000000,125.166664 155.000000,153.000000 
	C103.666664,153.000000 52.333332,153.000000 1.000000,153.000000 
	C1.000000,102.333336 1.000000,51.666668 1.000000,1.000000 
	C52.333332,1.000000 103.666664,1.000000 155.000000,1.000000 
	C155.000000,23.500000 155.000000,46.000000 155.000000,69.000000 
M146.804031,142.794296 
	C147.205383,141.127625 147.954803,139.461441 147.957092,137.794220 
	C148.012924,97.204903 147.989197,56.615459 147.392975,15.432336 
	C146.421158,15.280268 145.449341,14.995134 144.477539,14.995243 
	C98.966446,15.000321 53.455353,15.030192 7.204884,15.284178 
	C6.844970,16.485659 6.172199,17.686686 6.170460,18.888683 
	C6.112548,58.926254 6.100646,98.963966 6.194598,139.001389 
	C6.197721,140.332550 7.368166,141.660980 8.932416,143.023178 
	C54.626278,143.004333 100.320145,142.985489 146.804031,142.794296 
z"/>
<path fill="#33322E" opacity="1.000000" stroke="none" 
	d="
M7.944261,15.057222 
	C53.455353,15.030192 98.966446,15.000321 144.477539,14.995243 
	C145.449341,14.995134 146.421158,15.280268 147.453690,15.860962 
	C147.290970,16.565544 147.067551,16.841501 146.392075,17.081549 
	C99.980827,17.045839 54.021618,17.046040 8.039639,16.714642 
	C7.992662,15.941100 7.968462,15.499162 7.944261,15.057222 
z"/>
<path fill="#504F4B" opacity="1.000000" stroke="none" 
	d="
M7.574573,15.170700 
	C7.968462,15.499162 7.992662,15.941100 8.015573,17.178185 
	C8.051192,59.270985 8.088102,100.568634 8.088140,142.146896 
	C8.032340,142.615234 8.013411,142.802948 7.994481,142.990677 
	C7.368166,141.660980 6.197721,140.332550 6.194598,139.001389 
	C6.100646,98.963966 6.112548,58.926254 6.170460,18.888683 
	C6.172199,17.686686 6.844970,16.485659 7.574573,15.170700 
z"/>
<path fill="#3D3B38" opacity="1.000000" stroke="none" 
	d="
M8.463448,143.006927 
	C8.013411,142.802948 8.032340,142.615234 8.542877,142.177856 
	C54.684307,141.943161 100.334129,141.958099 145.992432,142.221420 
	C146.000931,142.469788 146.014008,142.966644 146.014008,142.966644 
	C100.320145,142.985489 54.626278,143.004333 8.463448,143.006927 
z"/>
<path fill="#494744" opacity="1.000000" stroke="none" 
	d="
M146.409027,142.880463 
	C146.014008,142.966644 146.000931,142.469788 146.034912,141.805389 
	C146.355057,139.177872 146.889648,137.214920 146.890701,135.251663 
	C146.912018,95.873611 146.871872,56.495533 146.844116,17.117458 
	C147.067551,16.841501 147.290970,16.565544 147.747070,16.157814 
	C147.989197,56.615459 148.012924,97.204903 147.957092,137.794220 
	C147.954803,139.461441 147.205383,141.127625 146.409027,142.880463 
z"/>
<path fill="#1C1A17" opacity="1.000000" stroke="none" 
	d="
M146.392075,17.081549 
	C146.871872,56.495533 146.912018,95.873611 146.890701,135.251663 
	C146.889648,137.214920 146.355057,139.177872 146.026428,141.557007 
	C100.334129,141.958099 54.684307,141.943161 8.579749,141.897247 
	C8.088102,100.568634 8.051192,59.270985 8.038347,17.509787 
	C54.021618,17.046040 99.980827,17.045839 146.392075,17.081549 
M31.554581,79.245522 
	C31.261400,79.913620 30.968218,80.581726 30.534214,82.142349 
	C30.534214,95.949821 30.534214,109.757301 30.534214,123.703934 
	C38.143250,123.703934 45.339581,123.703934 52.922272,123.703934 
	C52.922272,117.830460 52.922272,112.353493 53.862904,106.755524 
	C55.854603,106.738983 57.895050,106.999573 59.829792,106.659248 
	C69.643204,104.933067 77.176079,108.390579 82.902184,116.347351 
	C87.438286,122.650558 93.402794,124.999840 101.305801,124.258141 
	C109.086464,123.527931 116.989235,124.098816 125.392914,124.098816 
	C119.842018,118.283226 114.893929,113.221336 110.109329,108.009369 
	C108.737167,106.514648 107.837578,104.586113 107.160973,102.300140 
	C108.998947,101.207237 111.023636,100.337860 112.643921,98.984360 
	C121.664017,91.449409 125.624969,81.345985 126.141609,69.969643 
	C126.951157,52.143497 117.534363,35.819881 101.110977,30.924042 
	C100.333870,30.802206 99.556763,30.680370 97.882668,30.410685 
	C76.058220,30.423254 54.233776,30.435823 31.589355,30.338753 
	C31.154333,31.152185 30.348635,31.962088 30.340847,32.779587 
	C30.249250,42.398495 30.168674,52.020962 30.383163,61.635845 
	C30.417908,63.193371 31.633753,64.960670 32.764961,66.214966 
	C36.742702,70.625519 40.921619,74.854645 44.105717,79.284554 
	C40.133034,79.345078 36.160351,79.405594 31.554581,79.245522 
z"/>
<path fill="#FBFBFA" opacity="1.000000" stroke="none" 
	d="
M32.409328,30.448393 
	C54.233776,30.435823 76.058220,30.423254 98.464951,30.782154 
	C99.845375,31.253595 100.643509,31.353565 101.441643,31.453537 
	C117.534363,35.819881 126.951157,52.143497 126.141609,69.969643 
	C125.624969,81.345985 121.664017,91.449409 112.643921,98.984360 
	C111.023636,100.337860 108.998947,101.207237 106.606018,102.520607 
	C105.164505,102.391312 104.056305,102.269569 103.425606,101.656563 
	C97.055222,95.464828 90.724052,89.230980 84.496811,82.895958 
	C83.695999,82.081299 83.548531,80.624413 83.546974,79.418945 
	C85.320015,79.374252 86.644508,79.382156 87.968941,79.375999 
	C95.790413,79.339638 100.573647,75.217842 100.581398,68.511627 
	C100.589294,61.676235 95.545647,57.020702 87.817352,56.973209 
	C78.214279,56.914188 68.610214,57.017147 58.807178,56.777603 
	C57.234306,55.626385 55.666538,54.948082 54.519547,53.835850 
	C48.083881,47.595245 41.708271,41.290817 35.416260,34.905590 
	C34.179688,33.650700 33.399826,31.945768 32.409328,30.448393 
z"/>
<path fill="#ABAAAA" opacity="1.000000" stroke="none" 
	d="
M83.098404,79.465034 
	C83.548531,80.624413 83.695999,82.081299 84.496811,82.895958 
	C90.724052,89.230980 97.055222,95.464828 103.425606,101.656563 
	C104.056305,102.269569 105.164505,102.391312 106.386192,102.798782 
	C107.837578,104.586113 108.737167,106.514648 110.109329,108.009369 
	C114.893929,113.221336 119.842018,118.283226 125.392914,124.098816 
	C116.989235,124.098816 109.086464,123.527931 101.305801,124.258141 
	C93.402794,124.999840 87.438286,122.650558 82.902184,116.347351 
	C77.176079,108.390579 69.643204,104.933067 59.829792,106.659248 
	C57.895050,106.999573 55.854603,106.738983 53.456566,106.420593 
	C58.630016,105.605476 64.209808,105.125305 68.883652,104.723091 
	C61.007004,96.281586 53.015598,87.717102 45.024193,79.152618 
	C40.921619,74.854645 36.742702,70.625519 32.764961,66.214966 
	C31.633753,64.960670 30.417908,63.193371 30.383163,61.635845 
	C30.168674,52.020962 30.249250,42.398495 30.340847,32.779587 
	C30.348635,31.962088 31.154333,31.152185 31.999342,30.393574 
	C33.399826,31.945768 34.179688,33.650700 35.416260,34.905590 
	C41.708271,41.290817 48.083881,47.595245 54.519547,53.835850 
	C55.666538,54.948082 57.234306,55.626385 58.920448,57.096321 
	C66.095901,64.607910 72.925468,71.561996 79.870956,78.398300 
	C80.595154,79.111115 82.006096,79.126213 83.098404,79.465034 
z"/>
<path fill="#FCFCFB" opacity="1.000000" stroke="none" 
	d="
M44.564957,79.218582 
	C53.015598,87.717102 61.007004,96.281586 68.883652,104.723091 
	C64.209808,105.125305 58.630016,105.605476 52.986252,106.481087 
	C52.922272,112.353493 52.922272,117.830460 52.922272,123.703934 
	C45.339581,123.703934 38.143250,123.703934 30.534214,123.703934 
	C30.534214,109.757301 30.534214,95.949821 30.856024,81.641678 
	C31.514446,80.582703 31.851057,80.024414 32.187668,79.466118 
	C36.160351,79.405594 40.133034,79.345078 44.564957,79.218582 
z"/>
<path fill="#ABAAAA" opacity="1.000000" stroke="none" 
	d="
M101.276306,31.188789 
	C100.643509,31.353565 99.845375,31.253595 98.913452,30.856079 
	C99.556763,30.680370 100.333870,30.802206 101.276306,31.188789 
z"/>
<path fill="#ABAAAA" opacity="1.000000" stroke="none" 
	d="
M31.871126,79.355820 
	C31.851057,80.024414 31.514446,80.582703 30.926435,81.195412 
	C30.968218,80.581726 31.261400,79.913620 31.871126,79.355820 
z"/>
<path fill="#21201D" opacity="1.000000" stroke="none" 
	d="
M83.546974,79.418945 
	C82.006096,79.126213 80.595154,79.111115 79.870956,78.398300 
	C72.925468,71.561996 66.095901,64.607910 59.119843,57.368866 
	C68.610214,57.017147 78.214279,56.914188 87.817352,56.973209 
	C95.545647,57.020702 100.589294,61.676235 100.581398,68.511627 
	C100.573647,75.217842 95.790413,79.339638 87.968941,79.375999 
	C86.644508,79.382156 85.320015,79.374252 83.546974,79.418945 
z"/>
</svg>